<?xml version="1.0" encoding="utf-8"?>
<!-- Generator: Adobe Illustrator 24.0.2, SVG Export Plug-In . SVG Version: 6.00 Build 0)  -->
<svg version="1.1" id="Layer_1" xmlns="http://www.w3.org/2000/svg" xmlns:xlink="http://www.w3.org/1999/xlink" x="0px" y="0px"
	 viewBox="0 0 480 480" style="enable-background:new 0 0 480 480;" xml:space="preserve">
<style type="text/css">
	.st0{clip-path:url(#SVGID_2_);}
	.st1{fill:#E1E1E1;}
	.st2{clip-path:url(#SVGID_4_);}
	.st3{clip-path:url(#SVGID_6_);}
	.st4{fill:#00B7F9;}
	.st5{clip-path:url(#SVGID_8_);}
	.st6{clip-path:url(#SVGID_10_);}
	.st7{fill:#00A0D1;}
	.st8{clip-path:url(#SVGID_12_);}
	.st9{fill:#37474F;}
	.st10{clip-path:url(#SVGID_14_);}
	.st11{clip-path:url(#SVGID_16_);}
</style>
<g>
	<defs>
		<rect id="SVGID_1_" x="8" y="29" width="466.5" height="418.7"/>
	</defs>
	<clipPath id="SVGID_2_">
		<use xlink:href="#SVGID_1_"  style="overflow:visible;"/>
	</clipPath>
	<g class="st0">
		<path class="st1" d="M427.4,447.5H55.2C29.1,447.5,8,426.3,8,400.3V76.4c0-26.1,21.1-47.2,47.2-47.2h372.2
			c26,0,47.2,21.1,47.2,47.2v323.9C474.5,426.3,453.4,447.5,427.4,447.5z"/>
	</g>
</g>
<g>
	<defs>
		<rect id="SVGID_3_" x="8" y="29" width="466.5" height="418.7"/>
	</defs>
	<clipPath id="SVGID_4_">
		<use xlink:href="#SVGID_3_"  style="overflow:visible;"/>
	</clipPath>
	<g class="st2">
		<path class="st1" d="M414.6,29.5H263c-0.4,0-0.8,0.3-1,0.7c-12.1,32.5-21.7,66.1-28.7,99.9c-6.6,33.3-10.8,67.2-12.3,101.2
			c0,0.6,0.4,1.1,1,1.1h45.7c4.8,0,9.5,2,12.7,5.6c3.2,3.6,4.8,8.4,4.3,13.2c-3.3,34.8-3.3,70,0.2,104.8c0.1,0.6,0.6,1.1,1.2,0.9
			c27.6-5.3,63-17.5,96-45.3c5.1-4.2,12.7-3.5,16.9,1.6c4.3,5,3.6,12.6-1.4,16.9c-37.5,31.4-77.8,44.9-108.6,50.7
			c-0.5,0.1-0.9,0.6-0.8,1.1c3.3,21.9,8.1,43.7,14.1,65c0.1,0.5,0.5,0.8,1,0.8h110.3c27,0,48.8-21.9,48.8-48.8V77.4
			C462.6,50.9,441.1,29.5,414.6,29.5z M356.7,172c0,6.6-5.4,12-12,12s-12-5.4-12-12v-38.9c0-6.6,5.4-12,12-12s12,5.4,12,12V172z"/>
	</g>
</g>
<g>
	<defs>
		<rect id="SVGID_5_" x="8" y="29" width="466.5" height="418.7"/>
	</defs>
	<clipPath id="SVGID_6_">
		<use xlink:href="#SVGID_5_"  style="overflow:visible;"/>
	</clipPath>
	<g class="st3">
		<path class="st4" d="M332.8,172v-38.9c0-6.6,5.4-12,12-12s12,5.4,12,12V172c0,6.6-5.4,12-12,12C338.2,183.9,332.8,178.5,332.8,172
			z"/>
	</g>
</g>
<g>
	<defs>
		<rect id="SVGID_7_" x="8" y="29" width="466.5" height="418.7"/>
	</defs>
	<clipPath id="SVGID_8_">
		<use xlink:href="#SVGID_7_"  style="overflow:visible;"/>
	</clipPath>
	<g class="st5">
		<path class="st4" d="M397.7,330.1c-37.9,31.7-78.6,45.2-109.6,50.8c3.3,22.5,8.3,44.9,14.5,66.8H55.9C29.4,447.7,8,426.3,8,399.8
			V77.5c0-26.5,21.5-48,48-48h206.3c-12.2,32.7-21.9,66.5-28.9,100.6c-6.7,33.6-10.9,67.9-12.3,102.3h46.8c4.8,0,9.5,2,12.7,5.6
			c3.2,3.6,4.8,8.4,4.3,13.2c-3.3,35.2-3.3,70.8,0.4,106c27.8-5.1,63.6-17.3,97.1-45.5c5.1-4.2,12.7-3.5,16.9,1.6
			C403.5,318.3,402.8,325.8,397.7,330.1z"/>
	</g>
</g>
<g>
	<defs>
		<rect id="SVGID_9_" x="8" y="29" width="466.5" height="418.7"/>
	</defs>
	<clipPath id="SVGID_10_">
		<use xlink:href="#SVGID_9_"  style="overflow:visible;"/>
	</clipPath>
	<g class="st6">
		<path class="st7" d="M302.6,447.7c-6.2-21.9-11.1-44.3-14.5-66.8c-1.1-7.1-2-14.2-2.8-21.3c-0.1-0.8-0.1-1.7-0.2-2.5
			c-3.7-35.2-3.7-70.8-0.4-106c0.5-4.8-1.1-9.6-4.3-13.2c-3.2-3.6-7.9-5.6-12.7-5.6h-46.8c1.4-34.3,5.6-68.7,12.3-102.3
			c7.1-34.1,16.7-67.9,28.9-100.6c1-2.5,1.9-4.9,2.9-7.4l-22.3-8.7c-2,5.4-4.1,10.8-6,16.1c-11.4,31.2-20.5,63.4-27,95.9
			c-7.5,37.2-11.8,75.2-13,113.3c-0.1,4.7,1.6,9.1,4.9,12.4c3.1,3.2,7.7,5.1,12.3,5.1h46.2c-2.9,34.6-2.5,69.5,1.1,104
			c0.1,0.6,0.1,1.3,0.2,1.9c0.8,7.3,1.7,14.6,2.9,21.8c3.1,21.5,7.7,42.8,13.3,63.8c3.1,11.4,6.5,22.5,10.3,33.6l22.7-7.8
			C307.8,465,305.2,456.3,302.6,447.7z"/>
	</g>
</g>
<g>
	<defs>
		<rect id="SVGID_11_" x="8" y="29" width="466.5" height="418.7"/>
	</defs>
	<clipPath id="SVGID_12_">
		<use xlink:href="#SVGID_11_"  style="overflow:visible;"/>
	</clipPath>
	<g class="st8">
		<path class="st9" d="M397.7,330.1c-37.9,31.7-78.6,45.2-109.6,50.8c-8.7,1.6-16.7,2.5-23.7,3c-6.7,0.6-12.4,0.7-16.9,0.7
			c-76.7,0-130.5-38.2-150.1-54.5c-5.1-4.3-5.7-11.8-1.6-16.9c4.3-5,11.8-5.7,16.9-1.6c17.6,14.8,65.9,49,134.8,49
			c3.7,0,8.4-0.1,13.8-0.5c6.8-0.5,14.8-1.4,23.8-3.1c27.8-5.1,63.6-17.3,97.1-45.5c5.1-4.2,12.7-3.5,16.9,1.6
			C403.5,318.3,402.8,325.8,397.7,330.1z"/>
	</g>
</g>
<g>
	<defs>
		<rect id="SVGID_13_" x="8" y="29" width="466.5" height="418.7"/>
	</defs>
	<clipPath id="SVGID_14_">
		<use xlink:href="#SVGID_13_"  style="overflow:visible;"/>
	</clipPath>
	<g class="st10">
		<path class="st9" d="M137.5,183.9c-6.6,0-12-5.4-12-12v-38.9c0-6.6,5.3-12,12-12c6.6,0,12,5.4,12,12V172
			C149.5,178.6,144.1,183.9,137.5,183.9z"/>
	</g>
</g>
<g>
	<defs>
		<rect id="SVGID_15_" x="8" y="29" width="466.5" height="418.7"/>
	</defs>
	<clipPath id="SVGID_16_">
		<use xlink:href="#SVGID_15_"  style="overflow:visible;"/>
	</clipPath>
	<g class="st11">
		<path class="st9" d="M356.7,133.1V172c0,6.6-5.4,12-12,12s-12-5.4-12-12v-38.9c0-6.6,5.4-12,12-12S356.7,126.5,356.7,133.1z"/>
	</g>
</g>
</svg>
